<?xml version="1.0" encoding="UTF-8"?>
<svg version="1.1" xmlns="http://www.w3.org/2000/svg" width="318" height="359">
<path d="M0 0 C2.25741549 0.28441898 4.51521948 0.56577475 6.7734375 0.84375 C7.75489746 0.96943359 8.73635742 1.09511719 9.74755859 1.22460938 C12.72438675 1.50951198 15.63644803 1.54653167 18.625 1.5 C18.625 2.16 18.625 2.82 18.625 3.5 C21.1 2.51 21.1 2.51 23.625 1.5 C23.625 2.49 23.625 3.48 23.625 4.5 C25.22794922 4.63921875 25.22794922 4.63921875 26.86328125 4.78125 C53.8858103 8.19686921 94.00455568 23.87955568 113.625 43.5 C126.93388626 97.43143452 112.33167574 168.47543656 84.87353516 215.49951172 C80.95474329 221.94195096 76.85376352 228.25736656 72.625 234.5 C71.68043945 235.91418213 71.68043945 235.91418213 70.71679688 237.35693359 C70.09353516 238.2742627 69.47027344 239.1915918 68.828125 240.13671875 C68.26254883 240.97291748 67.69697266 241.80911621 67.11425781 242.6706543 C66.62280273 243.27433838 66.13134766 243.87802246 65.625 244.5 C64.965 244.5 64.305 244.5 63.625 244.5 C63.40457031 245.03882813 63.18414062 245.57765625 62.95703125 246.1328125 C61.1794585 249.29178343 58.79009972 251.76249777 56.3125 254.375 C53.456985 257.41311256 50.63849536 260.4454926 48 263.67578125 C46.06506355 265.97670074 44.22740857 267.89016894 41.9375 269.8125 C39.75301456 271.66588043 37.60271469 273.52104494 35.51953125 275.48828125 C23.29447781 286.99792709 9.15859629 296.19270957 -5.375 304.5 C-6.92380859 305.44939453 -6.92380859 305.44939453 -8.50390625 306.41796875 C-9.45136719 306.98128906 -10.39882812 307.54460937 -11.375 308.125 C-12.179375 308.61226563 -12.98375 309.09953125 -13.8125 309.6015625 C-18.22631385 311.1490887 -21.59528549 310.35411783 -25.77001953 308.35058594 C-28.53841767 306.82208612 -31.24017743 305.21314894 -33.9375 303.5625 C-34.90679443 302.97927979 -35.87608887 302.39605957 -36.87475586 301.79516602 C-45.63348022 296.46626873 -54.14278734 290.81828905 -62.05859375 284.28515625 C-64.33006228 282.33241317 -64.33006228 282.33241317 -67.375 281.5 C-69.5625 279.5625 -69.5625 279.5625 -71.375 277.5 C-71.375 276.84 -71.375 276.18 -71.375 275.5 C-72.23109863 275.13068359 -72.23109863 275.13068359 -73.10449219 274.75390625 C-75.7534281 273.29101003 -77.56048546 271.57354681 -79.703125 269.4375 C-80.50234375 268.64085937 -81.3015625 267.84421875 -82.125 267.0234375 C-82.95 266.19070313 -83.775 265.35796875 -84.625 264.5 C-85.46546875 263.66726563 -86.3059375 262.83453125 -87.171875 261.9765625 C-87.9659375 261.17992187 -88.76 260.38328125 -89.578125 259.5625 C-90.30676758 258.83160156 -91.03541016 258.10070312 -91.78613281 257.34765625 C-93.375 255.5 -93.375 255.5 -93.375 253.5 C-94.035 253.5 -94.695 253.5 -95.375 253.5 C-98.63679038 249.71488941 -101.46758816 245.5619836 -104.375 241.5 C-104.80522461 240.90590332 -105.23544922 240.31180664 -105.67871094 239.69970703 C-111.61749807 231.46709097 -116.9940422 222.98362951 -122.0625 214.1875 C-122.59206299 213.27363525 -123.12162598 212.35977051 -123.66723633 211.41821289 C-124.15216553 210.56219482 -124.63709473 209.70617676 -125.13671875 208.82421875 C-125.56944092 208.06197998 -126.00216309 207.29974121 -126.44799805 206.5144043 C-127.375 204.5 -127.375 204.5 -127.375 201.5 C-128.695 201.5 -130.015 201.5 -131.375 201.5 C-131.045 200.51 -130.715 199.52 -130.375 198.5 C-131.07199018 196.01514164 -131.07199018 196.01514164 -132.25390625 193.29296875 C-132.67784668 192.24254395 -133.10178711 191.19211914 -133.53857422 190.10986328 C-134.00021973 188.9804834 -134.46186523 187.85110352 -134.9375 186.6875 C-150.28464558 147.94198377 -155.34283313 107.05214212 -152.63037109 65.58374023 C-152.49854863 63.5399984 -152.37991324 61.49574207 -152.26171875 59.45117188 C-152.13603516 57.48180664 -152.13603516 57.48180664 -152.0078125 55.47265625 C-151.93449707 54.29968994 -151.86118164 53.12672363 -151.78564453 51.91821289 C-150.67720341 42.69152789 -150.67720341 42.69152789 -147.21484375 39.5234375 C-146.25707031 38.97945312 -145.29929687 38.43546875 -144.3125 37.875 C-143.47851685 37.39812744 -143.47851685 37.39812744 -142.62768555 36.91162109 C-140.55773458 35.74678382 -138.46688051 34.62497077 -136.375 33.5 C-135.50327148 33.01724609 -134.63154297 32.53449219 -133.73339844 32.03710938 C-80.55787459 2.65015889 -80.55787459 2.65015889 -55.375 3.5 C-55.045 2.84 -54.715 2.18 -54.375 1.5 C-52.50390625 1.15625 -52.50390625 1.15625 -49.9375 1 C-46.2998066 0.7394881 -42.68265735 0.43429821 -39.0625 -0.00390625 C-37.91865845 -0.14119141 -37.91865845 -0.14119141 -36.75170898 -0.28125 C-35.25845204 -0.46272822 -33.76571988 -0.64860428 -32.27368164 -0.83984375 C-21.37824004 -2.13072071 -10.84889064 -1.39539613 0 0 Z " fill="#00325F" transform="translate(179.375,20.5)"/>
<path d="M0 0 C1.08692139 0.53052979 2.17384277 1.06105957 3.29370117 1.60766602 C4.28990479 2.12385498 5.2861084 2.64004395 6.3125 3.171875 C7.19550781 3.62143555 8.07851563 4.07099609 8.98828125 4.53417969 C11 6.25 11 6.25 11.77807617 8.85864258 C12.05606975 13.1068371 12.20062574 17.33296573 12.23828125 21.58984375 C12.24793915 22.49672943 12.25759705 23.40361511 12.26754761 24.33798218 C12.29243622 27.28786304 12.30496262 30.23752526 12.3125 33.1875 C12.31545074 34.19332123 12.31840149 35.19914246 12.32144165 36.23544312 C12.33321558 53.90213853 11.01676482 70.82998878 8 88.25 C7.84563477 89.17151855 7.69126953 90.09303711 7.53222656 91.04248047 C5.60738769 102.42783693 5.60738769 102.42783693 4 107.25 C-0.28334025 105.7556257 -3.79802404 103.49978577 -7.5 100.9375 C-14.84249673 95.93965033 -22.36320222 91.26053941 -29.94140625 86.62963867 C-30.79992187 86.10345947 -31.6584375 85.57728027 -32.54296875 85.03515625 C-33.30633545 84.56988525 -34.06970215 84.10461426 -34.85620117 83.62524414 C-40.86275641 79.77204682 -40.86275641 79.77204682 -41.6171875 76.90234375 C-41.74480469 75.55849609 -41.74480469 75.55849609 -41.875 74.1875 C-43.58837946 63.16669481 -50.25420667 55.78257216 -59 49.25 C-60.71509766 48.45142578 -60.71509766 48.45142578 -62.46484375 47.63671875 C-69.65084721 44.05562752 -69.65084721 44.05562752 -72 40.25 C-74.00918882 32.58264104 -73.74050198 24.48210553 -73.87109375 16.60742188 C-74.05400156 11.8435048 -74.75636613 7.24357856 -75.625 2.5625 C-75.76115723 1.80912354 -75.89731445 1.05574707 -76.03759766 0.27954102 C-76.34718189 -1.3990801 -76.67156192 -3.07496577 -77 -4.75 C-82.88541945 -0.05128638 -87.56901657 5.16900396 -92.21484375 11.08984375 C-92.80394531 11.80269531 -93.39304687 12.51554687 -94 13.25 C-94.33 13.25 -94.66 13.25 -95 13.25 C-95.20363159 12.13757935 -95.20363159 12.13757935 -95.41137695 11.00268555 C-96.03298748 7.64525212 -96.6725121 4.29147668 -97.3125 0.9375 C-97.52583984 -0.22974609 -97.73917969 -1.39699219 -97.95898438 -2.59960938 C-98.17490234 -3.71787109 -98.39082031 -4.83613281 -98.61328125 -5.98828125 C-98.80704346 -7.01993408 -99.00080566 -8.05158691 -99.20043945 -9.11450195 C-100.04144573 -11.88661274 -100.64353035 -13.09221791 -103 -14.75 C-108.6769789 -14.68881101 -112.39991389 -12.64283605 -116.8125 -9.3125 C-117.41852051 -8.86366455 -118.02454102 -8.4148291 -118.64892578 -7.95239258 C-134.59405556 4.11288207 -144.77751057 20.68770125 -151.125 39.5625 C-153.91332374 46.45129982 -159.21548045 49.34008964 -165.25927734 53.109375 C-180.0001837 62.76849344 -193.6127971 77.17701543 -204 91.25 C-204.82316888 92.34193808 -205.64745876 93.43303167 -206.47265625 94.5234375 C-208.66192763 97.4223232 -210.83483875 100.33304665 -213 103.25 C-215.75037009 99.12444486 -216.1502476 95.0829668 -217 90.25 C-217.165 89.3734375 -217.33 88.496875 -217.5 87.59375 C-220.2598587 72.24203597 -221.32016187 56.96598282 -221.20581055 41.38598633 C-221.1873337 38.78912651 -221.18530356 36.19262255 -221.18554688 33.59570312 C-221.13837626 8.53277835 -221.13837626 8.53277835 -218.56420898 5.63208008 C-216.48115447 4.18241419 -214.3289082 3.2628585 -212 2.25 C-210.24374734 1.34250151 -208.48772892 0.43453133 -206.73486328 -0.47949219 C-203.18881516 -2.3026756 -199.59325233 -4.02228236 -196 -5.75 C-195.2467041 -6.11673828 -194.4934082 -6.48347656 -193.71728516 -6.86132812 C-174.36205009 -16.21954563 -154.21648403 -22.74398452 -133.02832031 -26.39599609 C-130.34316632 -26.86463756 -127.67373702 -27.40808484 -125 -27.9375 C-82.86926874 -35.23060958 -37.08829914 -18.61753098 0 0 Z " fill="#81C6F5" transform="translate(265,65.75)"/>
<path d="M0 0 C2.01889405 3.53168329 2.83384235 7.0778477 3.7265625 11.03125 C3.87910492 11.70418091 4.03164734 12.37711182 4.18881226 13.07043457 C4.50894321 14.48860668 4.82648894 15.90736456 5.14160156 17.32666016 C5.62370788 19.49419069 6.11592813 21.65924518 6.609375 23.82421875 C6.91987782 25.20559287 7.22979353 26.58709912 7.5390625 27.96875 C7.95986084 29.84723633 7.95986084 29.84723633 8.38916016 31.76367188 C9 35 9 35 9 39 C9.7940625 39.0825 10.588125 39.165 11.40625 39.25 C27.5352935 42.61606125 47.5146806 53.38706322 57 67 C58.12589491 70.37768474 58.13294275 73.00812072 58.125 76.5625 C58.12886719 78.29693359 58.12886719 78.29693359 58.1328125 80.06640625 C58 83 58 83 57 85 C57.82886719 85.2371875 58.65773438 85.474375 59.51171875 85.71875 C64.39355877 87.51185585 68.59280088 90.14583621 73.01953125 92.84643555 C76.90241522 95.20217926 80.77624421 97.42519479 84.85546875 99.42578125 C96.39582019 105.25147961 96.39582019 105.25147961 98.1796875 110.4140625 C98.375 113.9375 98.375 113.9375 98.0859375 117.21484375 C97.70075848 120.03293837 97.70075848 120.03293837 99.4765625 121.87890625 C99.97929687 122.24886719 100.48203125 122.61882812 101 123 C100.03106542 128.9347243 97.84676233 131.59311596 93.36328125 135.51953125 C85.2027754 140.63164979 74.15362064 140.17407141 64.99902344 138.2421875 C60.92638173 137.27488383 56.89908803 136.15056679 52.875 135 C36.55626014 129.99604093 36.55626014 129.99604093 20.10546875 132.3125 C19.14253906 132.869375 18.17960937 133.42625 17.1875 134 C15.475625 134.99 13.76375 135.98 12 137 C17.94 137.33 23.88 137.66 30 138 C27.72081505 140.27918495 25.65455488 140.86379778 22.64086914 141.8527832 C13.94589388 144.73524336 8.30326824 148.21076551 2 155 C1.67 155.33 1.34 155.66 1 156 C-10.24857314 155.79169309 -20.11481745 148.56223992 -28 141 C-34.87621511 132.96457621 -39.81134343 123.13159615 -40.31640625 112.453125 C-40.35830078 111.60878906 -40.40019531 110.76445312 -40.44335938 109.89453125 C-40.48267578 109.02183594 -40.52199219 108.14914063 -40.5625 107.25 C-40.62727539 105.91775391 -40.62727539 105.91775391 -40.69335938 104.55859375 C-40.79913495 102.37256528 -40.9000426 100.18630223 -41 98 C-44.3 100.64 -47.6 103.28 -51 106 C-51.66 105.67 -52.32 105.34 -53 105 C-46.84788469 92.53949379 -40.62012351 80.50068095 -30.61694336 70.65429688 C-23.79499739 63.74631514 -20.9439787 57.82862129 -18.5625 48.5 C-17.84205584 45.94310039 -17.11429823 43.39004697 -16.37109375 40.83984375 C-16.18494507 40.19413925 -15.99879639 39.54843475 -15.80700684 38.88316345 C-13.70931206 31.7514117 -10.97257121 24.9264322 -8.125 18.0625 C-7.66037354 16.9384375 -7.19574707 15.814375 -6.71704102 14.65625 C-4.63318152 9.68396677 -2.50739567 4.77401494 0 0 Z " fill="#81C6F5" transform="translate(156,69)"/>
<path d="M0 0 C0.495 0.99 0.495 0.99 1 2 C-6.96533664 22.10025384 -21.76181082 40.04843881 -36.57128906 55.50830078 C-37.88665218 56.88165496 -39.1900085 58.2664824 -40.4921875 59.65234375 C-46.57152419 65.96090133 -53.17810756 71.34035659 -60.15576172 76.60449219 C-61.98082309 77.98548912 -63.78933562 79.38625003 -65.59765625 80.7890625 C-74.87108342 87.88226364 -84.68581027 93.5534462 -95 99 C-97.41837694 95.37243459 -97.27017794 93.62404389 -97.30078125 89.3046875 C-97.30638062 88.64437027 -97.31197998 87.98405304 -97.31774902 87.3037262 C-97.32967899 85.16058681 -97.32338402 83.0181389 -97.3125 80.875 C-97.31067719 80.14725372 -97.30885437 79.41950745 -97.30697632 78.66970825 C-97.20888999 55.54785377 -93.2863702 30.6746055 -77 13 C-69.04639403 5.55061036 -60.57285002 3.48947397 -49.875 3.75 C-49.02035156 3.75515625 -48.16570312 3.7603125 -47.28515625 3.765625 C-43.65669 3.81021445 -40.18561773 3.97320981 -36.58984375 4.4921875 C-31.61831935 5.19544993 -26.70308185 5.30339533 -21.6875 5.375 C-20.21506836 5.43107422 -20.21506836 5.43107422 -18.71289062 5.48828125 C-11.33651071 5.57615341 -6.28460408 3.82240726 0 0 Z " fill="#81C6F5" transform="translate(255,214)"/>
<path d="M0 0 C1.5609552 0.18326547 3.11268612 0.44625181 4.65625 0.7421875 C5.59597656 0.92136719 6.53570312 1.10054687 7.50390625 1.28515625 C8.49261719 1.47980469 9.48132813 1.67445313 10.5 1.875 C11.48871094 2.06191406 12.47742188 2.24882812 13.49609375 2.44140625 C20.86706792 3.86706792 20.86706792 3.86706792 22 5 C22.07226502 6.85287502 22.0838122 8.70833878 22.0625 10.5625 C22.05347656 11.57441406 22.04445312 12.58632812 22.03515625 13.62890625 C22.02355469 14.41136719 22.01195312 15.19382813 22 16 C6.65229649 17.61933566 6.65229649 17.61933566 1.421875 13.7734375 C-1.30073529 11.40427387 -3.70020491 8.78160961 -6 6 C-4 4 -2 2 0 0 Z " fill="#012955" transform="translate(184,138)"/>
<path d="M0 0 C0.54398438 0.226875 1.08796875 0.45375 1.6484375 0.6875 C-0.11981392 1.83731374 -1.89125771 2.98221922 -3.6640625 4.125 C-5.14326172 5.08212891 -5.14326172 5.08212891 -6.65234375 6.05859375 C-9.3515625 7.6875 -9.3515625 7.6875 -12.3515625 8.6875 C-12.33996094 9.38875 -12.32835937 10.09 -12.31640625 10.8125 C-12.30738281 11.76125 -12.29835938 12.71 -12.2890625 13.6875 C-12.27746094 14.615625 -12.26585937 15.54375 -12.25390625 16.5 C-12.3515625 19.6875 -12.3515625 19.6875 -12.84936523 23.25512695 C-13.47100928 28.10654571 -13.49537481 32.90760388 -13.484375 37.79296875 C-13.48581009 39.23280876 -13.48581009 39.23280876 -13.48727417 40.70173645 C-13.48795212 42.73141546 -13.48612481 44.76109669 -13.48193359 46.79077148 C-13.47665679 49.82085363 -13.48185164 52.85078226 -13.48828125 55.88085938 C-13.49224658 68.84391781 -13.09002357 81.74592774 -12.3515625 94.6875 C-12.6815625 94.6875 -13.0115625 94.6875 -13.3515625 94.6875 C-13.3515625 92.7075 -13.3515625 90.7275 -13.3515625 88.6875 C-14.0115625 88.6875 -14.6715625 88.6875 -15.3515625 88.6875 C-15.64276705 84.67182025 -15.92721926 80.65571814 -16.20605469 76.63916016 C-16.34754211 74.61987828 -16.49401088 72.60094737 -16.640625 70.58203125 C-17.55944288 57.25917192 -17.47827288 44.09236601 -16.60693359 30.77124023 C-16.47511113 28.7274984 -16.35647574 26.68324207 -16.23828125 24.63867188 C-16.11259766 22.66930664 -16.11259766 22.66930664 -15.984375 20.66015625 C-15.91105957 19.48718994 -15.83774414 18.31422363 -15.76220703 17.10571289 C-14.65363879 7.87796975 -14.65363879 7.87796975 -10.890625 4.4375 C-9.92898437 3.86 -8.96734375 3.2825 -7.9765625 2.6875 C-7.02007812 2.089375 -6.06359375 1.49125 -5.078125 0.875 C-2.3515625 -0.3125 -2.3515625 -0.3125 0 0 Z " fill="#04274C" transform="translate(43.3515625,55.3125)"/>
<path d="M0 0 C0.66 0 1.32 0 2 0 C3.26953125 1.29296875 3.26953125 1.29296875 4.8125 3.1875 C13.26081004 13.09362653 22.64314641 22.11155162 33 30 C33.61375488 30.47373047 34.22750977 30.94746094 34.85986328 31.43554688 C47.2078756 40.90783105 60.32364947 48.60584579 74 56 C74 56.33 74 56.66 74 57 C70.11524459 57.24788155 67.9450364 56.74160423 64.62890625 54.7265625 C63.81365479 54.23607422 62.99840332 53.74558594 62.15844727 53.24023438 C61.30178467 52.70720703 60.44512207 52.17417969 59.5625 51.625 C58.67812256 51.08423828 57.79374512 50.54347656 56.88256836 49.98632812 C48.36924552 44.72363086 40.03860513 39.15374124 32.30859375 32.78125 C30.04376721 30.83172165 30.04376721 30.83172165 27 30 C24.8125 28.0625 24.8125 28.0625 23 26 C23 25.34 23 24.68 23 24 C22.42854248 23.75233887 21.85708496 23.50467773 21.26831055 23.24951172 C16.7760531 20.77492625 13.40628669 16.73290212 9.8125 13.125 C8.98041016 12.30902344 8.14832031 11.49304688 7.29101562 10.65234375 C6.50017578 9.86214844 5.70933594 9.07195312 4.89453125 8.2578125 C4.17112549 7.5373877 3.44771973 6.81696289 2.70239258 6.07470703 C0.97872779 3.97407554 0.39300949 2.65571207 0 0 Z " fill="#042146" transform="translate(85,272)"/>
<path d="M0 0 C3.29016067 3.78910812 5.45741442 7.73751748 7.5625 12.25 C14.66825517 26.91124167 24.23107395 40.01885456 34 53 C33.01 53.33 32.02 53.66 31 54 C21.89174216 41.84430636 13.47890943 29.50325706 5.9375 16.3125 C5.54288574 15.62873291 5.14827148 14.94496582 4.74169922 14.24047852 C2 9.35863174 2 9.35863174 2 6 C0.68 6 -0.64 6 -2 6 C-2 5.34 -2 4.68 -2 4 C-1.34 4 -0.68 4 0 4 C0 2.68 0 1.36 0 0 Z " fill="#022143" transform="translate(50,216)"/>
<path d="M0 0 C0 0.66 0 1.32 0 2 C-1.55029297 3.42944336 -1.55029297 3.42944336 -3.7421875 5.08984375 C-4.55260498 5.70424316 -5.36302246 6.31864258 -6.19799805 6.95166016 C-7.08140869 7.6069873 -7.96481934 8.26231445 -8.875 8.9375 C-9.77452393 9.6082959 -10.67404785 10.2790918 -11.60083008 10.97021484 C-19.42156872 16.72319707 -27.49762636 21.95681191 -35.91162109 26.79785156 C-37.39793383 27.65342836 -38.87384485 28.52718511 -40.34228516 29.41308594 C-41.12265137 29.87231445 -41.90301758 30.33154297 -42.70703125 30.8046875 C-43.40932861 31.22476074 -44.11162598 31.64483398 -44.83520508 32.07763672 C-47.36475139 33.15541116 -49.27755835 33.16737908 -52 33 C-48.65230025 30.28362824 -45.00812117 28.38505486 -41.1875 26.4375 C-29.00058797 20.05891342 -17.95990897 12.1727698 -7.10180664 3.75878906 C-2.20809064 0 -2.20809064 0 0 0 Z " fill="#052041" transform="translate(212,297)"/>
<path d="M0 0 C0.33 0 0.66 0 1 0 C2.59980917 12.09773052 3.16803757 23.92064715 2.75 36.125 C2.69211304 37.9361731 2.69211304 37.9361731 2.63305664 39.78393555 C2.32934658 47.00764692 1.51526125 53.92938069 0 61 C-0.33 61 -0.66 61 -1 61 C-1.08076752 47.63858361 -0.82596786 34.29452537 -0.5 20.9375 C-0.4516401 18.89518661 -0.40346193 16.85286891 -0.35546875 14.81054688 C-0.23906751 9.87364586 -0.1202306 4.93680918 0 0 Z " fill="#031C3C" transform="translate(293,81)"/>
<path d="M0 0 C5.43784739 0.53696612 9.41364628 2.48933099 14.125 5.0625 C15.23790405 5.66106812 15.23790405 5.66106812 16.37329102 6.27172852 C31.57182097 14.57182097 31.57182097 14.57182097 37 20 C37.1953125 23.2578125 37.1953125 23.2578125 37.125 27.125 C37.10695313 28.40632813 37.08890625 29.68765625 37.0703125 31.0078125 C37.04710937 31.99523437 37.02390625 32.98265625 37 34 C36.67 34 36.34 34 36 34 C35.99226563 32.7315625 35.99226563 32.7315625 35.984375 31.4375 C35.49842554 24.30403698 35.49842554 24.30403698 31.58203125 18.56640625 C28.46770816 16.49959157 25.32021867 14.71531487 22 13 C21.05898438 12.47019531 20.11796875 11.94039062 19.1484375 11.39453125 C16.45425615 9.88439214 13.73235247 8.4397098 11 7 C8.93592832 5.87788622 6.87338643 4.75295318 4.8125 3.625 C3.89082031 3.12226562 2.96914063 2.61953125 2.01953125 2.1015625 C1.35308594 1.73804688 0.68664062 1.37453125 0 1 C0 0.67 0 0.34 0 0 Z " fill="#031E43" transform="translate(256,44)"/>
<path d="M0 0 C0.33 0 0.66 0 1 0 C2.22790778 14.20621079 2.22790778 14.20621079 -0.74609375 18.55078125 C-2.75474594 20.22286783 -4.79270117 21.60935507 -7 23 C-7.33 23.66 -7.66 24.32 -8 25 C-8.66 24.67 -9.32 24.34 -10 24 C-8.71118756 20.74886092 -7.41845238 17.49929559 -6.125 14.25 C-5.76019531 13.32960938 -5.39539063 12.40921875 -5.01953125 11.4609375 C-4.48779297 10.12675781 -4.48779297 10.12675781 -3.9453125 8.765625 C-3.45828857 7.54020996 -3.45828857 7.54020996 -2.96142578 6.29003906 C-2.05905131 4.14065548 -1.06871204 2.07088948 0 0 Z " fill="#093566" transform="translate(155,96)"/>
<path d="M0 0 C1.17276976 3.48378784 1.02138135 3.95025345 -0.5546875 7.6171875 C-1.31365514 9.0442486 -2.08808632 10.46315648 -2.875 11.875 C-3.48432373 12.99261719 -3.48432373 12.99261719 -4.10595703 14.1328125 C-6.89063265 19.17287179 -9.80791614 24.1267873 -12.875 29 C-13.24351074 29.59280762 -13.61202148 30.18561523 -13.99169922 30.79638672 C-16.63585904 34.87861968 -16.63585904 34.87861968 -20 36 C-18.70187884 32.47830288 -17.15665548 29.54545202 -15.0625 26.4375 C-9.52893129 17.92612101 -4.82717185 8.92390776 0 0 Z " fill="#052348" transform="translate(271,217)"/>
<path d="M0 0 C0.33 0 0.66 0 1 0 C0.50447598 6.91639863 -1.04043017 12.62497919 -3.5625 19.0625 C-3.89185547 19.92810547 -4.22121094 20.79371094 -4.56054688 21.68554688 C-5.36438009 23.79415283 -6.1775712 25.89859349 -7 28 C-7.99 28 -8.98 28 -10 28 C-7.91037654 21.59162763 -5.6602938 15.25546703 -3.3125 8.9375 C-2.99216797 8.07189453 -2.67183594 7.20628906 -2.34179688 6.31445312 C-1.56248716 4.20915373 -0.78187196 2.10434886 0 0 Z " fill="#032144" transform="translate(282,187)"/>
<path d="M0 0 C-3.471375 2.31425 -6.81589893 3.07241172 -10.8125 4 C-12.215395 4.33100564 -13.6177505 4.66430695 -15.01953125 5 C-15.6945166 5.16113281 -16.36950195 5.32226562 -17.06494141 5.48828125 C-18.8460378 5.95928529 -20.58927334 6.56773102 -22.32421875 7.1875 C-25 8 -25 8 -28 7 C-19.72288806 1.5700901 -9.80929217 -0.67650291 0 0 Z " fill="#052C52" transform="translate(123,25)"/>
<path d="M0 0 C5.72992618 0.50342802 9.93964482 2.83132463 14.875 5.5625 C15.65875 5.98724609 16.4425 6.41199219 17.25 6.84960938 C19.17100387 7.89210538 21.0873249 8.94232445 23 10 C21.10961914 11.04296875 21.10961914 11.04296875 19 12 C17.24609375 11.3125 17.24609375 11.3125 15.4375 10 C12.0513656 7.67643329 8.6164036 5.63765844 5 3.6875 C4.05125 3.17574219 3.1025 2.66398437 2.125 2.13671875 C1.42375 1.76160156 0.7225 1.38648438 0 1 C0 0.67 0 0.34 0 0 Z " fill="#04264D" transform="translate(256,44)"/>
<path d="M0 0 C7.668423 -0.61347384 14.86167652 1.1990043 22 4 C22.99 5.485 22.99 5.485 24 7 C18.2976581 5.90587119 12.61123781 4.73369354 6.9375 3.5 C5.28041016 3.14421875 5.28041016 3.14421875 3.58984375 2.78125 C2.73519531 2.5234375 1.88054687 2.265625 1 2 C0.67 1.34 0.34 0.68 0 0 Z " fill="#032349" transform="translate(203,26)"/>
<path d="M0 0 C0 0.33 0 0.66 0 1 C-2.81185594 1.33972801 -5.62428236 1.67190212 -8.4375 2 C-9.22060547 2.09539063 -10.00371094 2.19078125 -10.81054688 2.2890625 C-16.24375619 2.91511131 -21.53074263 3.08759571 -27 3 C-27 2.34 -27 1.68 -27 1 C-24.18865636 0.63303929 -21.37670145 0.28123619 -18.5625 -0.0625 C-17.77939453 -0.16626953 -16.99628906 -0.27003906 -16.18945312 -0.37695312 C-10.57915129 -1.04649532 -5.59536926 -0.80093874 0 0 Z " fill="#041F43" transform="translate(163,20)"/>
<path d="M0 0 C6.27 0 12.54 0 19 0 C16.8244694 2.1755306 15.44026108 2.71879553 12.5625 3.6875 C11.38880859 4.09548828 11.38880859 4.09548828 10.19140625 4.51171875 C8 5 8 5 5 4 C4.67 3.34 4.34 2.68 4 2 C2.68 1.34 1.36 0.68 0 0 Z " fill="#A1E1F7" transform="translate(167,207)"/>
<path d="M0 0 C1 2 1 2 1 5 C1.66 5.66 2.32 6.32 3 7 C0.36 9.31 -2.28 11.62 -5 14 C-5.66 13.67 -6.32 13.34 -7 13 C-3.535 6.565 -3.535 6.565 0 0 Z " fill="#98DCF4" transform="translate(110,161)"/>
<path d="M0 0 C0.33 0 0.66 0 1 0 C1.30950345 6.49957243 0.88761459 12.06581955 -2 18 C-2.66 18.33 -3.32 18.66 -4 19 C-3.37968409 12.42465139 -1.85102717 6.33307408 0 0 Z " fill="#042A49" transform="translate(287,167)"/>
<path d="M0 0 C6.52020013 0.41398096 12.41472922 1.38453454 18 5 C18.33 5.99 18.66 6.98 19 8 C12.54646385 5.94235079 6.2638737 3.57616518 0 1 C0 0.67 0 0.34 0 0 Z " fill="#042248" transform="translate(236,36)"/>
<path d="M0 0 C0.33 0 0.66 0 1 0 C1.38028169 14.04929577 1.38028169 14.04929577 -1 20 C-1.66 20.66 -2.32 21.32 -3 22 C-2.68905914 19.45813394 -2.37629464 16.91651402 -2.0625 14.375 C-1.97548828 13.66214844 -1.88847656 12.94929687 -1.79882812 12.21484375 C-1.29217395 8.12408039 -0.7110957 4.06157365 0 0 Z " fill="#022043" transform="translate(291,143)"/>
<path d="M0 0 C0 5.94 0 11.88 0 18 C-2.30088988 13.39822025 -3.12148775 11.44794671 -3.0625 6.375 C-3.05347656 5.37210937 -3.04445312 4.36921875 -3.03515625 3.3359375 C-3.02355469 2.56507812 -3.01195312 1.79421875 -3 1 C-1 0 -1 0 0 0 Z " fill="#77BAE9" transform="translate(47,84)"/>
<path d="M0 0 C2.87525669 -0.05425013 5.74947646 -0.09379277 8.625 -0.125 C9.43324219 -0.14175781 10.24148437 -0.15851562 11.07421875 -0.17578125 C15.80093815 -0.21420986 19.55387702 0.17262906 24 2 C24 2.33 24 2.66 24 3 C15.86455314 3.28545428 8.02350304 2.18396883 0 1 C0 0.67 0 0.34 0 0 Z " fill="#021E43" transform="translate(167,21)"/>
<path d="M0 0 C1 3 1 3 -0.3125 5.6875 C-0.869375 6.450625 -1.42625 7.21375 -2 8 C-2.66 8 -3.32 8 -4 8 C-4.268125 8.598125 -4.53625 9.19625 -4.8125 9.8125 C-5.98493467 11.97224808 -7.19369282 13.35790256 -9 15 C-9.66 14.67 -10.32 14.34 -11 14 C-7.37 9.38 -3.74 4.76 0 0 Z " fill="#041D3F" transform="translate(247,257)"/>
<path d="M0 0 C2.28814723 2.28814723 2.75451161 3.80751622 3.6875 6.875 C3.95949219 7.73867187 4.23148438 8.60234375 4.51171875 9.4921875 C5.01692938 12.08694932 4.85561171 13.530785 4 16 C0.38706495 10.34497123 -0.12915831 6.71623212 0 0 Z " fill="#021F42" transform="translate(37,179)"/>
<path d="M0 0 C-2.11997834 1.19733988 -4.24513676 2.38298713 -6.375 3.5625 C-6.97828125 3.90474609 -7.5815625 4.24699219 -8.203125 4.59960938 C-9.76978241 5.46127095 -11.38290862 6.23718183 -13 7 C-13.66 6.67 -14.32 6.34 -15 6 C-12.87748883 3.69895986 -10.84451444 2.18105541 -8.0625 0.75 C-7.39347656 0.39421875 -6.72445312 0.0384375 -6.03515625 -0.328125 C-3.61730731 -1.12634 -2.36988243 -0.82707306 0 0 Z " fill="#03244B" transform="translate(64,46)"/>
<path d="M0 0 C0.33 0 0.66 0 1 0 C1 4.95 1 9.9 1 15 C0.67 15 0.34 15 0 15 C-0.33 12.69 -0.66 10.38 -1 8 C-1.66 9.65 -2.32 11.3 -3 13 C-3.66 13 -4.32 13 -5 13 C-4.54554036 11.58208592 -4.08625056 10.16571954 -3.625 8.75 C-3.24214844 7.56664063 -3.24214844 7.56664063 -2.8515625 6.359375 C-2.04826333 4.13372042 -1.10288338 2.09068328 0 0 Z " fill="#03133A" transform="translate(155,96)"/>
<path d="M0 0 C2.7933465 5.39365686 3.11908784 9.92652016 3 16 C2.34 16 1.68 16 1 16 C0.14701624 12.32612505 -0.10789471 8.9552607 -0.0625 5.1875 C-0.05347656 4.21167969 -0.04445313 3.23585937 -0.03515625 2.23046875 C-0.02355469 1.49441406 -0.01195313 0.75835937 0 0 Z " fill="#031F42" transform="translate(31,151)"/>
<path d="M0 0 C0.33 0.99 0.66 1.98 1 3 C-0.43359375 5.04296875 -0.43359375 5.04296875 -2.4375 7.1875 C-3.09621094 7.90292969 -3.75492188 8.61835938 -4.43359375 9.35546875 C-5.20896484 10.16951172 -5.20896484 10.16951172 -6 11 C-6.99 10.67 -7.98 10.34 -9 10 C-6.03 6.7 -3.06 3.4 0 0 Z " fill="#021E40" transform="translate(234,273)"/>
<path d="M0 0 C1.21236328 0.01353516 1.21236328 0.01353516 2.44921875 0.02734375 C3.37154297 0.04474609 3.37154297 0.04474609 4.3125 0.0625 C1.72714321 1.78607119 0.27438386 2.50985018 -2.625 3.25 C-3.29402344 3.42917969 -3.96304688 3.60835937 -4.65234375 3.79296875 C-6.93430888 4.09518678 -8.50776659 3.75006692 -10.6875 3.0625 C-9.6975 3.0625 -8.7075 3.0625 -7.6875 3.0625 C-7.6875 2.4025 -7.6875 1.7425 -7.6875 1.0625 C-4.80538698 0.10179566 -2.98899956 -0.04331883 0 0 Z " fill="#021D41" transform="translate(118.6875,24.9375)"/>
<path d="M0 0 C0.33 0 0.66 0 1 0 C1.33 3.3 1.66 6.6 2 10 C1.01 10 0.02 10 -1 10 C-1.33 9.67 -1.66 9.34 -2 9 C-1.30232558 2.60465116 -1.30232558 2.60465116 0 0 Z " fill="#043665" transform="translate(154,102)"/>
<path d="M0 0 C-2.34591852 2.7710688 -4.14776201 3.52059284 -7.6875 4.1875 C-8.49574219 4.34605469 -9.30398437 4.50460938 -10.13671875 4.66796875 C-11.05904297 4.83232422 -11.05904297 4.83232422 -12 5 C-8.12259529 0.85518807 -5.65610938 -0.15286782 0 0 Z " fill="#042146" transform="translate(91,34)"/>
<path d="M0 0 C0.33 0.66 0.66 1.32 1 2 C2.65 1.34 4.3 0.68 6 0 C5.67 1.32 5.34 2.64 5 4 C1.7 3.67 -1.6 3.34 -5 3 C-5 2.67 -5 2.34 -5 2 C-3.35 2 -1.7 2 0 2 C0 1.34 0 0.68 0 0 Z " fill="#031E3C" transform="translate(197,22)"/>
<path d="M0 0 C1.06016453 3.1804936 1.04507457 3.95978307 0 7 C-0.99 8.485 -0.99 8.485 -2 10 C-2.66 9.67 -3.32 9.34 -4 9 C-2.68 6.03 -1.36 3.06 0 0 Z " fill="#091F49" transform="translate(149,111)"/>
<path d="M0 0 C0.99 0 1.98 0 3 0 C3 2.97 3 5.94 3 9 C0 6 0 6 -0.1875 2.8125 C-0.125625 1.884375 -0.06375 0.95625 0 0 Z " fill="#78BFEB" transform="translate(45,73)"/>
<path d="M0 0 C1 3 1 3 -0.25 5.625 C-2 8 -2 8 -5 9 C-3.7508258 5.54074837 -2.32472205 2.85306797 0 0 Z " fill="#041E3F" transform="translate(256,244)"/>
<path d="M0 0 C2.83374881 3.20336822 3.5205537 5.78087253 4 10 C1 8 1 8 0.48828125 6.0546875 C0.32552083 4.03645833 0.16276042 2.01822917 0 0 Z " fill="#021A3C" transform="translate(42,196)"/>
<path d="M0 0 C0.33 0 0.66 0 1 0 C1.36923077 6.52307692 1.36923077 6.52307692 -0.5 8.9375 C-0.995 9.288125 -1.49 9.63875 -2 10 C-1.125 2.25 -1.125 2.25 0 0 Z " fill="#041B3B" transform="translate(285,176)"/>
<path d="M0 0 C0.99 0.495 0.99 0.495 2 1 C2.4140625 3.06640625 2.4140625 3.06640625 2.625 5.5625 C2.69976562 6.38878906 2.77453125 7.21507812 2.8515625 8.06640625 C2.92503906 9.02353516 2.92503906 9.02353516 3 10 C2.67 9.34 2.34 8.68 2 8 C1.34 8 0.68 8 0 8 C0 5.36 0 2.72 0 0 Z " fill="#021939" transform="translate(34,168)"/>
<path d="M0 0 C0 0.66 0 1.32 0 2 C-2.3125 4.1875 -2.3125 4.1875 -5 6 C-5.99 5.67 -6.98 5.34 -8 5 C-3.16129032 0 -3.16129032 0 0 0 Z " fill="#021A38" transform="translate(212,297)"/>
<path d="M0 0 C0.33 0 0.66 0 1 0 C1.04898438 0.61488281 1.09796875 1.22976562 1.1484375 1.86328125 C1.22320312 2.67152344 1.29796875 3.47976562 1.375 4.3125 C1.44460937 5.11300781 1.51421875 5.91351563 1.5859375 6.73828125 C1.89564426 9.27224441 1.89564426 9.27224441 4 12 C3.01 12 2.02 12 1 12 C0 11 0 11 -0.09765625 8.49609375 C-0.08605469 7.48675781 -0.07445312 6.47742188 -0.0625 5.4375 C-0.05347656 4.42558594 -0.04445312 3.41367188 -0.03515625 2.37109375 C-0.02355469 1.58863281 -0.01195312 0.80617187 0 0 Z " fill="#5CA5CE" transform="translate(252,180)"/>
<path d="M0 0 C-5.07006276 2.53503138 -7.21472229 2.96421295 -13 2 C-13 1.67 -13 1.34 -13 1 C-8.59085217 -0.10228696 -4.51617599 -0.07654536 0 0 Z " fill="#ABE9FA" transform="translate(149,38)"/>
<path d="M0 0 C-1.15173355 2.46800047 -2.04783565 4.04783565 -4 6 C-4.99 5.67 -5.98 5.34 -7 5 C-2.25 0 -2.25 0 0 0 Z " fill="#041E42" transform="translate(219,290)"/>
<path d="M0 0 C1.2065625 0.0309375 1.2065625 0.0309375 2.4375 0.0625 C2.1075 1.7125 1.7775 3.3625 1.4375 5.0625 C-0.5 4.75 -0.5 4.75 -2.5625 4.0625 C-2.8925 3.0725 -3.2225 2.0825 -3.5625 1.0625 C-2.5625 0.0625 -2.5625 0.0625 0 0 Z " fill="#7BBFEE" transform="translate(171.5625,207.9375)"/>
<path d="M0 0 C3.625 -0.1875 3.625 -0.1875 7 0 C6.67 0.66 6.34 1.32 6 2 C3.35139573 2.59355614 0.70802678 2.74209269 -2 3 C-1.34 2.01 -0.68 1.02 0 0 Z " fill="#012046" transform="translate(97,30)"/>
<path d="M0 0 C0.66 1.32 1.32 2.64 2 4 C1.34 3.67 0.68 3.34 0 3 C0 2.01 0 1.02 0 0 Z " fill="#001D69" transform="translate(45,212)"/>
<path d="M0 0 C0.99 0.33 1.98 0.66 3 1 C2.01 1.33 1.02 1.66 0 2 C0 1.34 0 0.68 0 0 Z " fill="#00001F" transform="translate(52,230)"/>
<path d="M0 0 C1 4 1 4 1 4 Z " fill="#00005F" transform="translate(25,122)"/>
<path d="" fill="#00002A" transform="translate(0,0)"/>
<path d="M0 0 C0.99 0.495 0.99 0.495 2 1 C1.01 1.495 1.01 1.495 0 2 C0 1.34 0 0.68 0 0 Z " fill="#000000" transform="translate(44,216)"/>
<path d="M0 0 C2 1 2 1 2 1 Z " fill="#000000" transform="translate(156,331)"/>
<path d="" fill="#00003F" transform="translate(0,0)"/>
<path d="" fill="#001F3F" transform="translate(0,0)"/>
<path d="" fill="#00003F" transform="translate(0,0)"/>
<path d="" fill="#002A6A" transform="translate(0,0)"/>
<path d="" fill="#000000" transform="translate(0,0)"/>
<path d="" fill="#000000" transform="translate(0,0)"/>
<path d="" fill="#00003F" transform="translate(0,0)"/>
<path d="M0 0 C2 1 2 1 2 1 Z " fill="#001972" transform="translate(266,46)"/>
<path d="" fill="#001F1F" transform="translate(0,0)"/>
<path d="" fill="#002A2A" transform="translate(0,0)"/>
<path d="M0 0 C2 1 2 1 2 1 Z " fill="#002A6A" transform="translate(250,38)"/>
<path d="M0 0 C2 1 2 1 2 1 Z " fill="#00007F" transform="translate(71,38)"/>
<path d="M0 0 C2 1 2 1 2 1 Z " fill="#000000" transform="translate(86,32)"/>
<path d="M0 0 C2 1 2 1 2 1 Z " fill="#00003F" transform="translate(89,31)"/>
<path d="M0 0 C2 1 2 1 2 1 Z " fill="#001F3F" transform="translate(92,30)"/>
<path d="M0 0 C2 1 2 1 2 1 Z " fill="#000000" transform="translate(158,17)"/>
<path d="" fill="#000000" transform="translate(0,0)"/>
<path d="" fill="#000000" transform="translate(0,0)"/>
<path d="" fill="#000000" transform="translate(0,0)"/>
<path d="" fill="#00007F" transform="translate(0,0)"/>
<path d="" fill="#000000" transform="translate(0,0)"/>
<path d="" fill="#00007F" transform="translate(0,0)"/>
<path d="" fill="#000000" transform="translate(0,0)"/>
<path d="" fill="#00007F" transform="translate(0,0)"/>
<path d="" fill="#000000" transform="translate(0,0)"/>
<path d="" fill="#000000" transform="translate(0,0)"/>
<path d="" fill="#005555" transform="translate(0,0)"/>
<path d="" fill="#000000" transform="translate(0,0)"/>
<path d="" fill="#000000" transform="translate(0,0)"/>
<path d="" fill="#000000" transform="translate(0,0)"/>
<path d="" fill="#005555" transform="translate(0,0)"/>
<path d="" fill="#000000" transform="translate(0,0)"/>
<path d="" fill="#000000" transform="translate(0,0)"/>
<path d="" fill="#00007F" transform="translate(0,0)"/>
<path d="" fill="#000000" transform="translate(0,0)"/>
<path d="" fill="#00007F" transform="translate(0,0)"/>
<path d="" fill="#000000" transform="translate(0,0)"/>
<path d="" fill="#003F3F" transform="translate(0,0)"/>
<path d="" fill="#00007F" transform="translate(0,0)"/>
<path d="" fill="#000000" transform="translate(0,0)"/>
<path d="" fill="#000000" transform="translate(0,0)"/>
<path d="" fill="#000000" transform="translate(0,0)"/>
<path d="" fill="#000000" transform="translate(0,0)"/>
<path d="" fill="#000000" transform="translate(0,0)"/>
<path d="" fill="#000000" transform="translate(0,0)"/>
<path d="" fill="#000000" transform="translate(0,0)"/>
<path d="" fill="#00007F" transform="translate(0,0)"/>
<path d="" fill="#000000" transform="translate(0,0)"/>
<path d="" fill="#000000" transform="translate(0,0)"/>
<path d="" fill="#00007F" transform="translate(0,0)"/>
<path d="" fill="#000000" transform="translate(0,0)"/>
<path d="" fill="#00007F" transform="translate(0,0)"/>
<path d="" fill="#000000" transform="translate(0,0)"/>
<path d="" fill="#000000" transform="translate(0,0)"/>
<path d="" fill="#00007F" transform="translate(0,0)"/>
<path d="" fill="#000000" transform="translate(0,0)"/>
<path d="" fill="#000000" transform="translate(0,0)"/>
<path d="" fill="#000000" transform="translate(0,0)"/>
<path d="" fill="#000000" transform="translate(0,0)"/>
<path d="" fill="#00007F" transform="translate(0,0)"/>
<path d="" fill="#000000" transform="translate(0,0)"/>
<path d="" fill="#000000" transform="translate(0,0)"/>
<path d="" fill="#005555" transform="translate(0,0)"/>
<path d="" fill="#000000" transform="translate(0,0)"/>
<path d="" fill="#000000" transform="translate(0,0)"/>
<path d="" fill="#00007F" transform="translate(0,0)"/>
<path d="" fill="#000000" transform="translate(0,0)"/>
<path d="" fill="#000000" transform="translate(0,0)"/>
<path d="" fill="#000000" transform="translate(0,0)"/>
<path d="" fill="#000000" transform="translate(0,0)"/>
<path d="" fill="#000000" transform="translate(0,0)"/>
<path d="" fill="#000000" transform="translate(0,0)"/>
<path d="" fill="#005555" transform="translate(0,0)"/>
<path d="" fill="#00007F" transform="translate(0,0)"/>
<path d="" fill="#000000" transform="translate(0,0)"/>
<path d="" fill="#000000" transform="translate(0,0)"/>
<path d="" fill="#00007F" transform="translate(0,0)"/>
<path d="" fill="#000000" transform="translate(0,0)"/>
<path d="" fill="#000000" transform="translate(0,0)"/>
<path d="" fill="#003F7F" transform="translate(0,0)"/>
<path d="" fill="#00007F" transform="translate(0,0)"/>
<path d="" fill="#000000" transform="translate(0,0)"/>
<path d="" fill="#00007F" transform="translate(0,0)"/>
<path d="" fill="#000000" transform="translate(0,0)"/>
<path d="" fill="#00007F" transform="translate(0,0)"/>
<path d="" fill="#00007F" transform="translate(0,0)"/>
<path d="" fill="#00007F" transform="translate(0,0)"/>
<path d="" fill="#000000" transform="translate(0,0)"/>
<path d="" fill="#005555" transform="translate(0,0)"/>
<path d="" fill="#000000" transform="translate(0,0)"/>
<path d="" fill="#00007F" transform="translate(0,0)"/>
<path d="" fill="#000000" transform="translate(0,0)"/>
<path d="" fill="#003366" transform="translate(0,0)"/>
<path d="" fill="#00007F" transform="translate(0,0)"/>
<path d="" fill="#000000" transform="translate(0,0)"/>
<path d="" fill="#000000" transform="translate(0,0)"/>
<path d="" fill="#000000" transform="translate(0,0)"/>
<path d="" fill="#000000" transform="translate(0,0)"/>
<path d="" fill="#000000" transform="translate(0,0)"/>
<path d="" fill="#000000" transform="translate(0,0)"/>
<path d="" fill="#00007F" transform="translate(0,0)"/>
<path d="" fill="#000000" transform="translate(0,0)"/>
<path d="" fill="#000000" transform="translate(0,0)"/>
<path d="" fill="#000000" transform="translate(0,0)"/>
<path d="" fill="#00007F" transform="translate(0,0)"/>
<path d="" fill="#00007F" transform="translate(0,0)"/>
<path d="" fill="#00007F" transform="translate(0,0)"/>
<path d="" fill="#000000" transform="translate(0,0)"/>
<path d="" fill="#000000" transform="translate(0,0)"/>
<path d="" fill="#000000" transform="translate(0,0)"/>
<path d="" fill="#005555" transform="translate(0,0)"/>
<path d="" fill="#000000" transform="translate(0,0)"/>
<path d="" fill="#000000" transform="translate(0,0)"/>
<path d="" fill="#000000" transform="translate(0,0)"/>
<path d="" fill="#00007F" transform="translate(0,0)"/>
<path d="" fill="#000000" transform="translate(0,0)"/>
<path d="" fill="#000000" transform="translate(0,0)"/>
<path d="" fill="#000000" transform="translate(0,0)"/>
<path d="" fill="#000000" transform="translate(0,0)"/>
<path d="" fill="#003F7F" transform="translate(0,0)"/>
<path d="" fill="#000000" transform="translate(0,0)"/>
<path d="" fill="#000000" transform="translate(0,0)"/>
<path d="" fill="#00007F" transform="translate(0,0)"/>
<path d="" fill="#000000" transform="translate(0,0)"/>
<path d="" fill="#00007F" transform="translate(0,0)"/>
<path d="" fill="#000000" transform="translate(0,0)"/>
<path d="" fill="#000000" transform="translate(0,0)"/>
<path d="" fill="#000000" transform="translate(0,0)"/>
<path d="" fill="#000000" transform="translate(0,0)"/>
<path d="" fill="#00007F" transform="translate(0,0)"/>
<path d="" fill="#000000" transform="translate(0,0)"/>
<path d="" fill="#000000" transform="translate(0,0)"/>
<path d="" fill="#000000" transform="translate(0,0)"/>
<path d="" fill="#000000" transform="translate(0,0)"/>
<path d="" fill="#000000" transform="translate(0,0)"/>
<path d="" fill="#000000" transform="translate(0,0)"/>
<path d="" fill="#000000" transform="translate(0,0)"/>
<path d="" fill="#000000" transform="translate(0,0)"/>
<path d="" fill="#00007F" transform="translate(0,0)"/>
<path d="" fill="#000000" transform="translate(0,0)"/>
<path d="" fill="#000000" transform="translate(0,0)"/>
<path d="" fill="#000000" transform="translate(0,0)"/>
<path d="" fill="#000000" transform="translate(0,0)"/>
</svg>
